<svg width="200" height="200" viewBox="0 0 200 200" fill="none" xmlns="http://www.w3.org/2000/svg">
<rect width="200" height="200" rx="12" fill="#84C000"/>
<rect width="200" height="200" rx="12" fill="#84C000" fill-opacity="0.6"/>
<rect width="200" height="200" rx="12" fill="#84C000" fill-opacity="0.2"/>
<path d="M81.8718 147.456C79.9185 149.412 76.7482 149.412 74.7949 147.456L38.5269 111.128C36.5781 109.176 36.5781 106.015 38.5269 104.063L46.6282 95.9485C48.5815 93.992 51.7518 93.992 53.7051 95.9485L74.7949 117.073C76.7482 119.029 79.9185 119.029 81.8718 117.073L146.295 52.5442C148.248 50.5877 151.418 50.5877 153.372 52.5442L161.473 60.6589C163.422 62.6108 163.422 65.7722 161.473 67.7241L81.8718 147.456Z" fill="#FAFBF9"/>
</svg>
